<svg width="146" height="34" viewBox="0 0 146 34" fill="none" xmlns="http://www.w3.org/2000/svg">
<path fill-rule="evenodd" clip-rule="evenodd" d="M18.1108 5.81622C18.144 5.87128 20.8785 10.4472 18.2959 16.8124C19.8971 17.5651 20.7173 17.857 22.4037 18.3913C23.0638 16.9407 26.0855 9.35433 21.5049 2.22218C21.5049 2.22218 13.7588 0.990117 6.86998 2.31172C6.86998 2.31172 8.81918 4.38666 10.8048 8.23747C10.8048 8.23747 4.12147 9.91902 0 15.954L1.32808 19.4305C1.32808 19.4305 3.92571 12.8661 16.309 10.8855C16.309 10.8855 15.4225 7.9199 13.8148 5.57694C13.8148 5.57694 16.1383 5.31372 18.1108 5.81622ZM30.551 19.5601C30.551 19.5601 29.636 21.5383 28.1745 22.8546C28.1053 22.8533 22.421 22.7352 17.7099 17.4977C16.1984 18.3931 15.5129 18.8987 14.1647 19.9714C15.2027 21.2219 20.846 27.4205 29.8655 27.35C29.8655 27.35 34.9047 21.8117 37.1062 15.6764C37.1062 15.6764 34.1737 16.1868 29.5475 15.837C29.5475 15.837 31.3068 9.68504 27.677 3.3892L23.7331 2.70452C23.7331 2.70452 28.6246 8.05363 24.295 18.885C24.295 18.885 27.5359 19.6651 30.551 19.5601ZM7.16593 22.1579C7.16593 22.1579 10.1609 17.6785 17.5155 16.6148C17.4446 14.9649 17.3197 14.1656 16.9991 12.5551C15.2977 12.7383 6.61246 14.0438 2.08905 21.2058C2.08905 21.2058 4.71919 28.0054 9.35316 32.8669C9.35316 32.8669 10.3671 30.2899 13.0486 26.8134C13.0486 26.8134 17.9239 31.3339 25.6751 31.6694L28.3241 28.902C28.3241 28.902 20.8174 30.0446 12.862 21.1127C12.862 21.1127 10.4816 23.276 9.04553 25.712C9.04553 25.712 7.65567 23.9821 7.16463 22.1579H7.16593Z" fill="#95DB00"/>
<path d="M51.3292 16.8329H56.2362C56.8634 16.8329 57.3025 16.7164 57.5534 16.4833C57.814 16.2502 57.9828 15.8065 58.06 15.1521C58.0986 14.9908 58.1517 14.8742 58.2192 14.8025C58.2964 14.7218 58.3978 14.677 58.5232 14.6681C58.7838 14.6412 58.9526 14.7756 59.0298 15.0714L60.1878 19.0247C60.2264 19.186 60.2216 19.316 60.1734 19.4146C60.1348 19.5043 60.0479 19.567 59.9128 19.6029C59.7874 19.6387 59.6667 19.6387 59.5509 19.6029C59.4351 19.558 59.3386 19.4774 59.2614 19.3608C58.9912 18.9126 58.7403 18.572 58.5087 18.3389C58.2771 18.1058 58.0214 17.949 57.7416 17.8683C57.4714 17.7786 57.1288 17.7338 56.7139 17.7338H51.3292V16.8329ZM47.0012 8.30794C47.0012 8.18244 47.0495 8.08384 47.146 8.01212C47.2425 7.94041 47.392 7.90455 47.5947 7.90455H58.7693C59.0491 7.90455 59.2807 7.85973 59.4641 7.77009C59.6571 7.68045 59.8356 7.5908 59.9997 7.50116C60.1637 7.41152 60.3326 7.3667 60.5063 7.3667C60.6896 7.3667 60.8295 7.416 60.926 7.51461C61.0322 7.61322 61.1239 7.78354 61.2011 8.02557L62.3301 11.9116C62.3784 12.0729 62.3735 12.2029 62.3156 12.3015C62.2674 12.4001 62.1709 12.4718 62.0261 12.5166C61.8717 12.5525 61.727 12.5435 61.5919 12.4898C61.4664 12.436 61.3603 12.3284 61.2734 12.167C60.9067 11.4499 60.569 10.8717 60.2602 10.4325C59.9514 9.99322 59.6426 9.65706 59.3338 9.42399C59.025 9.19092 58.6921 9.03404 58.335 8.95337C57.9876 8.86372 57.5872 8.8189 57.1336 8.8189H52.4727V24.7662C52.4727 25.1159 52.5885 25.3803 52.8201 25.5596C53.0517 25.7299 53.4136 25.8151 53.9057 25.8151H57.4955C58.1034 25.8151 58.6294 25.7165 59.0733 25.5192C59.5268 25.3131 59.9659 24.9097 60.3905 24.3091C60.8247 23.7085 61.3169 22.8165 61.8669 21.6333C61.9441 21.4898 62.0358 21.3912 62.1419 21.3374C62.2481 21.2836 62.3639 21.2657 62.4893 21.2836C62.6534 21.3105 62.7692 21.3778 62.8367 21.4853C62.9043 21.5929 62.9139 21.7363 62.8657 21.9156L61.6353 26.5412C61.5678 26.7742 61.4809 26.9401 61.3748 27.0387C61.2686 27.1462 61.1142 27.2 60.9116 27.2C60.7379 27.2 60.569 27.1597 60.405 27.079C60.2506 27.0073 60.072 26.9311 59.8694 26.8504C59.6667 26.7698 59.4207 26.7294 59.1312 26.7294H47.5947C47.392 26.7294 47.2425 26.6936 47.146 26.6218C47.0495 26.5412 47.0012 26.4426 47.0012 26.326C47.0012 26.1019 47.1556 25.954 47.4644 25.8823L48.5066 25.7075C48.7286 25.6627 48.8974 25.591 49.0132 25.4924C49.129 25.3848 49.1869 25.2414 49.1869 25.0621V9.5719C49.1869 9.39261 49.129 9.25367 49.0132 9.15506C48.8974 9.04749 48.7286 8.97129 48.5066 8.92647L47.4644 8.75167C47.1556 8.67996 47.0012 8.53205 47.0012 8.30794Z" fill="#95DB00"/>
<path d="M76.5114 25.0621C76.5114 25.2414 76.5693 25.3848 76.6851 25.4924C76.8009 25.591 76.9698 25.6627 77.1917 25.7075L78.2195 25.8823C78.5282 25.954 78.6826 26.1019 78.6826 26.326C78.6826 26.4515 78.6344 26.5501 78.5379 26.6218C78.451 26.6936 78.3063 26.7294 78.1037 26.7294H71.6334C71.4307 26.7294 71.2812 26.6936 71.1847 26.6218C71.0882 26.5501 71.0399 26.4515 71.0399 26.326C71.0399 26.1019 71.1943 25.954 71.5031 25.8823L72.5453 25.7075C72.7672 25.6627 72.9361 25.591 73.0519 25.4924C73.1677 25.3848 73.2256 25.2414 73.2256 25.0621V9.5719C73.2256 9.39261 73.1677 9.25367 73.0519 9.15506C72.9361 9.04749 72.7672 8.97129 72.5453 8.92647L71.5031 8.75167C71.1943 8.67996 71.0399 8.53205 71.0399 8.30794C71.0399 8.18244 71.0882 8.08384 71.1847 8.01212C71.2812 7.94041 71.4307 7.90455 71.6334 7.90455H78.1037C78.3063 7.90455 78.451 7.94041 78.5379 8.01212C78.6344 8.08384 78.6826 8.18244 78.6826 8.30794C78.6826 8.53205 78.5282 8.67996 78.2195 8.75167L77.1917 8.92647C76.9698 8.97129 76.8009 9.04749 76.6851 9.15506C76.5693 9.25367 76.5114 9.39261 76.5114 9.5719V25.0621Z" fill="#95DB00"/>
<path d="M90.1377 7.90455H100.835C101.134 7.90455 101.375 7.86421 101.558 7.78354C101.742 7.69389 101.901 7.60873 102.036 7.52805C102.181 7.43841 102.335 7.39359 102.499 7.39359C102.702 7.39359 102.856 7.44289 102.962 7.5415C103.078 7.63114 103.17 7.7925 103.237 8.02557L104.207 12.3822C104.246 12.5615 104.231 12.7094 104.164 12.8259C104.106 12.9335 104 13.0007 103.845 13.0276C103.701 13.0545 103.57 13.0411 103.455 12.9873C103.339 12.9245 103.242 12.8125 103.165 12.6511C102.692 11.5664 102.277 10.7552 101.92 10.2173C101.563 9.6705 101.197 9.30745 100.82 9.12817C100.444 8.93992 99.9854 8.8458 99.445 8.8458H97.158V25.0621C97.158 25.2414 97.2159 25.3848 97.3317 25.4924C97.4475 25.591 97.6116 25.6627 97.8239 25.7075L98.866 25.8823C99.1748 25.954 99.3292 26.1019 99.3292 26.326C99.3292 26.595 99.1362 26.7294 98.7502 26.7294H92.2655C92.0725 26.7294 91.9278 26.6936 91.8313 26.6218C91.7348 26.5412 91.6865 26.4426 91.6865 26.326C91.6865 26.1019 91.8409 25.954 92.1497 25.8823L93.1919 25.7075C93.4138 25.6627 93.5779 25.591 93.684 25.4924C93.7998 25.3848 93.8577 25.2414 93.8577 25.0621V8.8458H91.5707C91.04 8.8458 90.5864 8.93992 90.2101 9.12817C89.8337 9.31642 89.467 9.68395 89.11 10.2308C88.7529 10.7776 88.3332 11.5844 87.8507 12.6511C87.7831 12.8125 87.6866 12.9245 87.5612 12.9873C87.4454 13.0411 87.3151 13.0545 87.1704 13.0276C87.016 13.0007 86.9098 12.9335 86.8519 12.8259C86.794 12.7094 86.7795 12.5615 86.8085 12.3822L87.7783 8.02557C87.8458 7.7925 87.9327 7.63114 88.0388 7.5415C88.1546 7.44289 88.3139 7.39359 88.5165 7.39359C88.6806 7.39359 88.8301 7.43841 88.9652 7.52805C89.1003 7.60873 89.2596 7.69389 89.4429 7.78354C89.6263 7.86421 89.8579 7.90455 90.1377 7.90455Z" fill="#95DB00"/>
<path d="M129.051 14.3319C129.051 15.2104 128.844 16.0082 128.429 16.7253C128.014 17.4335 127.425 18.0252 126.663 18.5003C125.901 18.9664 125.003 19.2846 123.971 19.4549C123.672 19.4998 123.387 19.5491 123.117 19.6029C122.846 19.6477 122.576 19.688 122.306 19.7239C122.036 19.7597 121.737 19.7777 121.409 19.7777C120.791 19.7777 120.198 19.7373 119.628 19.6566C119.059 19.576 118.538 19.4594 118.065 19.307C117.592 19.1457 117.182 18.9574 116.835 18.7423L116.95 17.9221C117.25 18.1193 117.607 18.2896 118.022 18.433C118.436 18.5675 118.885 18.6706 119.368 18.7423C119.85 18.805 120.337 18.8364 120.83 18.8364C122.325 18.8364 123.503 18.4554 124.362 17.6935C125.22 16.9226 125.65 15.8065 125.65 14.3453C125.65 13.2607 125.394 12.3015 124.883 11.4678C124.371 10.6252 123.647 9.96632 122.711 9.49122C121.785 9.00715 120.69 8.76512 119.426 8.76512H117.804V25.0352C117.804 25.2234 117.857 25.3713 117.964 25.4789C118.07 25.5865 118.229 25.6627 118.441 25.7075L119.73 25.8823C119.913 25.9271 120.034 25.9854 120.091 26.0571C120.159 26.1288 120.193 26.2185 120.193 26.326C120.193 26.595 120 26.7294 119.614 26.7294H112.926C112.724 26.7294 112.574 26.6936 112.478 26.6218C112.381 26.5412 112.333 26.4426 112.333 26.326C112.333 26.1019 112.487 25.954 112.796 25.8823L113.838 25.7075C114.06 25.6627 114.229 25.5865 114.345 25.4789C114.461 25.3713 114.519 25.2234 114.519 25.0352V9.5719C114.519 9.39261 114.461 9.25367 114.345 9.15506C114.229 9.04749 114.06 8.97129 113.838 8.92647L112.796 8.75167C112.487 8.67996 112.333 8.53205 112.333 8.30794C112.333 8.18244 112.381 8.08384 112.478 8.01212C112.574 7.94041 112.724 7.90455 112.926 7.90455H119.512C121.549 7.90455 123.276 8.17796 124.694 8.72478C126.113 9.27159 127.194 10.0291 127.937 10.9972C128.68 11.9653 129.051 13.0769 129.051 14.3319ZM121.582 19.3608L124.81 19.0112L128.878 24.9276C129.071 25.2055 129.278 25.4117 129.5 25.5461C129.722 25.6806 130.012 25.7882 130.369 25.8688C130.648 25.9226 130.832 25.9854 130.919 26.0571C131.005 26.1288 131.049 26.2185 131.049 26.326C131.049 26.4426 130.996 26.5412 130.89 26.6218C130.793 26.6936 130.644 26.7294 130.441 26.7294H124.767C124.371 26.7294 124.173 26.595 124.173 26.326C124.173 26.2453 124.202 26.1781 124.26 26.1243C124.328 26.0616 124.424 26.0123 124.55 25.9764L125.143 25.8823C125.365 25.8195 125.491 25.7254 125.519 25.5999C125.548 25.4655 125.486 25.2817 125.331 25.0486L121.582 19.3608Z" fill="#95DB00"/>
<path d="M143.78 25.0621C143.78 25.2414 143.838 25.3848 143.954 25.4924C144.069 25.591 144.238 25.6627 144.46 25.7075L145.488 25.8823C145.797 25.954 145.951 26.1019 145.951 26.326C145.951 26.4515 145.903 26.5501 145.806 26.6218C145.72 26.6936 145.575 26.7294 145.372 26.7294H138.902C138.699 26.7294 138.55 26.6936 138.453 26.6218C138.357 26.5501 138.308 26.4515 138.308 26.326C138.308 26.1019 138.463 25.954 138.772 25.8823L139.814 25.7075C140.036 25.6627 140.205 25.591 140.32 25.4924C140.436 25.3848 140.494 25.2414 140.494 25.0621V9.5719C140.494 9.39261 140.436 9.25367 140.32 9.15506C140.205 9.04749 140.036 8.97129 139.814 8.92647L138.772 8.75167C138.463 8.67996 138.308 8.53205 138.308 8.30794C138.308 8.18244 138.357 8.08384 138.453 8.01212C138.55 7.94041 138.699 7.90455 138.902 7.90455H145.372C145.575 7.90455 145.72 7.94041 145.806 8.01212C145.903 8.08384 145.951 8.18244 145.951 8.30794C145.951 8.53205 145.797 8.67996 145.488 8.75167L144.46 8.92647C144.238 8.97129 144.069 9.04749 143.954 9.15506C143.838 9.25367 143.78 9.39261 143.78 9.5719V25.0621Z" fill="#95DB00"/>
</svg>
